<mxfile host="app.diagrams.net" modified="2023-03-24T06:10:15.615Z" agent="5.0 (Windows NT 10.0; Win64; x64) AppleWebKit/537.36 (KHTML, like Gecko) Chrome/111.0.0.0 Safari/537.36 Edg/111.0.1661.51" etag="cxBv-vxuZkXHbGO8AGXl" version="21.0.8" type="github">
  <diagram name="第 1 页" id="tm_zGyQlOneHj1FKt6RL">
    <mxGraphModel dx="1564" dy="937" grid="1" gridSize="10" guides="1" tooltips="1" connect="1" arrows="1" fold="1" page="1" pageScale="1" pageWidth="827" pageHeight="1169" math="0" shadow="0">
      <root>
        <mxCell id="0" />
        <mxCell id="1" parent="0" />
        <mxCell id="ER4k6rMHPvdGRf3YV4ZG-13" value="" style="edgeStyle=none;shape=connector;rounded=0;sketch=1;orthogonalLoop=1;jettySize=auto;html=1;labelBackgroundColor=default;strokeColor=default;fontFamily=Helvetica;fontSize=12;fontColor=default;endArrow=classic;" edge="1" parent="1" source="ER4k6rMHPvdGRf3YV4ZG-1" target="ER4k6rMHPvdGRf3YV4ZG-2">
          <mxGeometry relative="1" as="geometry" />
        </mxCell>
        <mxCell id="ER4k6rMHPvdGRf3YV4ZG-1" value="gateway" style="rounded=0;whiteSpace=wrap;html=1;comic=1;fillColor=#ffe6cc;strokeColor=#d79b00;" vertex="1" parent="1">
          <mxGeometry x="238.5" y="200" width="120" height="30" as="geometry" />
        </mxCell>
        <mxCell id="ER4k6rMHPvdGRf3YV4ZG-14" style="edgeStyle=none;shape=connector;rounded=0;sketch=1;orthogonalLoop=1;jettySize=auto;html=1;exitX=0.5;exitY=1;exitDx=0;exitDy=0;entryX=0.5;entryY=0;entryDx=0;entryDy=0;labelBackgroundColor=default;strokeColor=default;fontFamily=Helvetica;fontSize=12;fontColor=default;endArrow=classic;" edge="1" parent="1" source="ER4k6rMHPvdGRf3YV4ZG-2" target="ER4k6rMHPvdGRf3YV4ZG-3">
          <mxGeometry relative="1" as="geometry" />
        </mxCell>
        <mxCell id="ER4k6rMHPvdGRf3YV4ZG-15" style="edgeStyle=none;shape=connector;rounded=0;sketch=1;orthogonalLoop=1;jettySize=auto;html=1;exitX=0.5;exitY=1;exitDx=0;exitDy=0;entryX=0.5;entryY=0;entryDx=0;entryDy=0;labelBackgroundColor=default;strokeColor=default;fontFamily=Helvetica;fontSize=12;fontColor=default;endArrow=classic;" edge="1" parent="1" source="ER4k6rMHPvdGRf3YV4ZG-2" target="ER4k6rMHPvdGRf3YV4ZG-4">
          <mxGeometry relative="1" as="geometry" />
        </mxCell>
        <mxCell id="ER4k6rMHPvdGRf3YV4ZG-16" style="edgeStyle=none;shape=connector;rounded=0;sketch=1;orthogonalLoop=1;jettySize=auto;html=1;exitX=0.5;exitY=1;exitDx=0;exitDy=0;labelBackgroundColor=default;strokeColor=default;fontFamily=Helvetica;fontSize=12;fontColor=default;endArrow=classic;" edge="1" parent="1" source="ER4k6rMHPvdGRf3YV4ZG-2" target="ER4k6rMHPvdGRf3YV4ZG-5">
          <mxGeometry relative="1" as="geometry" />
        </mxCell>
        <mxCell id="ER4k6rMHPvdGRf3YV4ZG-17" style="edgeStyle=none;shape=connector;rounded=0;sketch=1;orthogonalLoop=1;jettySize=auto;html=1;exitX=0.5;exitY=1;exitDx=0;exitDy=0;entryX=0.579;entryY=0.062;entryDx=0;entryDy=0;entryPerimeter=0;labelBackgroundColor=default;strokeColor=default;fontFamily=Helvetica;fontSize=12;fontColor=default;endArrow=classic;" edge="1" parent="1" source="ER4k6rMHPvdGRf3YV4ZG-2" target="ER4k6rMHPvdGRf3YV4ZG-6">
          <mxGeometry relative="1" as="geometry" />
        </mxCell>
        <mxCell id="ER4k6rMHPvdGRf3YV4ZG-18" style="edgeStyle=none;shape=connector;rounded=0;sketch=1;orthogonalLoop=1;jettySize=auto;html=1;exitX=0.5;exitY=1;exitDx=0;exitDy=0;entryX=0.5;entryY=0;entryDx=0;entryDy=0;labelBackgroundColor=default;strokeColor=default;fontFamily=Helvetica;fontSize=12;fontColor=default;endArrow=classic;" edge="1" parent="1" source="ER4k6rMHPvdGRf3YV4ZG-2" target="ER4k6rMHPvdGRf3YV4ZG-7">
          <mxGeometry relative="1" as="geometry" />
        </mxCell>
        <mxCell id="ER4k6rMHPvdGRf3YV4ZG-2" value="提供gin http服务" style="rounded=0;whiteSpace=wrap;html=1;comic=1;fillColor=#b0e3e6;strokeColor=#0e8088;" vertex="1" parent="1">
          <mxGeometry x="225.25" y="270" width="146.5" height="30" as="geometry" />
        </mxCell>
        <mxCell id="ER4k6rMHPvdGRf3YV4ZG-20" style="edgeStyle=none;shape=connector;rounded=0;sketch=1;orthogonalLoop=1;jettySize=auto;html=1;exitX=0.5;exitY=1;exitDx=0;exitDy=0;entryX=0;entryY=0.5;entryDx=0;entryDy=0;labelBackgroundColor=default;strokeColor=default;fontFamily=Helvetica;fontSize=12;fontColor=default;endArrow=classic;" edge="1" parent="1" source="ER4k6rMHPvdGRf3YV4ZG-3" target="ER4k6rMHPvdGRf3YV4ZG-8">
          <mxGeometry relative="1" as="geometry" />
        </mxCell>
        <mxCell id="ER4k6rMHPvdGRf3YV4ZG-3" value="User模块" style="rounded=0;whiteSpace=wrap;html=1;comic=1;fillColor=#ffe6cc;strokeColor=#d79b00;" vertex="1" parent="1">
          <mxGeometry x="-44.75" y="390" width="120" height="30" as="geometry" />
        </mxCell>
        <mxCell id="ER4k6rMHPvdGRf3YV4ZG-19" style="edgeStyle=none;shape=connector;rounded=0;sketch=1;orthogonalLoop=1;jettySize=auto;html=1;exitX=0.5;exitY=1;exitDx=0;exitDy=0;entryX=0.25;entryY=0;entryDx=0;entryDy=0;labelBackgroundColor=default;strokeColor=default;fontFamily=Helvetica;fontSize=12;fontColor=default;endArrow=classic;" edge="1" parent="1" source="ER4k6rMHPvdGRf3YV4ZG-4" target="ER4k6rMHPvdGRf3YV4ZG-8">
          <mxGeometry relative="1" as="geometry" />
        </mxCell>
        <mxCell id="ER4k6rMHPvdGRf3YV4ZG-4" value="publish模块" style="rounded=0;whiteSpace=wrap;html=1;comic=1;fillColor=#ffe6cc;strokeColor=#d79b00;" vertex="1" parent="1">
          <mxGeometry x="105.25" y="390" width="120" height="30" as="geometry" />
        </mxCell>
        <mxCell id="ER4k6rMHPvdGRf3YV4ZG-21" style="edgeStyle=none;shape=connector;rounded=0;sketch=1;orthogonalLoop=1;jettySize=auto;html=1;exitX=0.5;exitY=1;exitDx=0;exitDy=0;entryX=0.5;entryY=0;entryDx=0;entryDy=0;labelBackgroundColor=default;strokeColor=default;fontFamily=Helvetica;fontSize=12;fontColor=default;endArrow=classic;" edge="1" parent="1" source="ER4k6rMHPvdGRf3YV4ZG-5" target="ER4k6rMHPvdGRf3YV4ZG-8">
          <mxGeometry relative="1" as="geometry" />
        </mxCell>
        <mxCell id="ER4k6rMHPvdGRf3YV4ZG-5" value="feed模块" style="rounded=0;whiteSpace=wrap;html=1;comic=1;fillColor=#ffe6cc;strokeColor=#d79b00;" vertex="1" parent="1">
          <mxGeometry x="245.25" y="390" width="120" height="30" as="geometry" />
        </mxCell>
        <mxCell id="ER4k6rMHPvdGRf3YV4ZG-22" style="edgeStyle=none;shape=connector;rounded=0;sketch=1;orthogonalLoop=1;jettySize=auto;html=1;exitX=0.5;exitY=1;exitDx=0;exitDy=0;labelBackgroundColor=default;strokeColor=default;fontFamily=Helvetica;fontSize=12;fontColor=default;endArrow=classic;" edge="1" parent="1" source="ER4k6rMHPvdGRf3YV4ZG-6" target="ER4k6rMHPvdGRf3YV4ZG-8">
          <mxGeometry relative="1" as="geometry">
            <mxPoint x="300" y="500" as="targetPoint" />
          </mxGeometry>
        </mxCell>
        <mxCell id="ER4k6rMHPvdGRf3YV4ZG-6" value="favorite模块" style="rounded=0;whiteSpace=wrap;html=1;comic=1;fillColor=#ffe6cc;strokeColor=#d79b00;" vertex="1" parent="1">
          <mxGeometry x="385.25" y="390" width="120" height="30" as="geometry" />
        </mxCell>
        <mxCell id="ER4k6rMHPvdGRf3YV4ZG-23" style="edgeStyle=none;shape=connector;rounded=0;sketch=1;orthogonalLoop=1;jettySize=auto;html=1;exitX=0.5;exitY=1;exitDx=0;exitDy=0;entryX=1;entryY=0.5;entryDx=0;entryDy=0;labelBackgroundColor=default;strokeColor=default;fontFamily=Helvetica;fontSize=12;fontColor=default;endArrow=classic;" edge="1" parent="1" source="ER4k6rMHPvdGRf3YV4ZG-7" target="ER4k6rMHPvdGRf3YV4ZG-8">
          <mxGeometry relative="1" as="geometry" />
        </mxCell>
        <mxCell id="ER4k6rMHPvdGRf3YV4ZG-7" value="comment模块" style="rounded=0;whiteSpace=wrap;html=1;comic=1;fillColor=#ffe6cc;strokeColor=#d79b00;" vertex="1" parent="1">
          <mxGeometry x="525.25" y="390" width="120" height="30" as="geometry" />
        </mxCell>
        <mxCell id="ER4k6rMHPvdGRf3YV4ZG-8" value="consul" style="rounded=0;whiteSpace=wrap;html=1;comic=1;fillColor=#ffe6cc;strokeColor=#d79b00;" vertex="1" parent="1">
          <mxGeometry x="245.25" y="510" width="120" height="30" as="geometry" />
        </mxCell>
        <mxCell id="ER4k6rMHPvdGRf3YV4ZG-25" style="edgeStyle=none;shape=connector;rounded=0;sketch=1;orthogonalLoop=1;jettySize=auto;html=1;exitX=0.5;exitY=0;exitDx=0;exitDy=0;entryX=0.25;entryY=1;entryDx=0;entryDy=0;labelBackgroundColor=default;strokeColor=default;fontFamily=Helvetica;fontSize=12;fontColor=default;endArrow=classic;" edge="1" parent="1" source="ER4k6rMHPvdGRf3YV4ZG-9" target="ER4k6rMHPvdGRf3YV4ZG-8">
          <mxGeometry relative="1" as="geometry" />
        </mxCell>
        <mxCell id="ER4k6rMHPvdGRf3YV4ZG-9" value="redis" style="rounded=0;whiteSpace=wrap;html=1;comic=1;fillColor=#ffe6cc;strokeColor=#d79b00;" vertex="1" parent="1">
          <mxGeometry x="140" y="600" width="120" height="30" as="geometry" />
        </mxCell>
        <mxCell id="ER4k6rMHPvdGRf3YV4ZG-26" style="edgeStyle=none;shape=connector;rounded=0;sketch=1;orthogonalLoop=1;jettySize=auto;html=1;exitX=0.5;exitY=0;exitDx=0;exitDy=0;entryX=0.75;entryY=1;entryDx=0;entryDy=0;labelBackgroundColor=default;strokeColor=default;fontFamily=Helvetica;fontSize=12;fontColor=default;endArrow=classic;" edge="1" parent="1" source="ER4k6rMHPvdGRf3YV4ZG-10" target="ER4k6rMHPvdGRf3YV4ZG-8">
          <mxGeometry relative="1" as="geometry" />
        </mxCell>
        <mxCell id="ER4k6rMHPvdGRf3YV4ZG-10" value="mysql" style="rounded=0;whiteSpace=wrap;html=1;comic=1;fillColor=#ffe6cc;strokeColor=#d79b00;" vertex="1" parent="1">
          <mxGeometry x="365.25" y="600" width="120" height="30" as="geometry" />
        </mxCell>
      </root>
    </mxGraphModel>
  </diagram>
</mxfile>
